<svg fill="#000000" xmlns:x="http://ns.adobe.com/Extensibility/1.0/" xmlns:i="http://ns.adobe.com/AdobeIllustrator/10.0/" xmlns:graph="http://ns.adobe.com/Graphs/1.0/" xmlns="http://www.w3.org/2000/svg" xmlns:xlink="http://www.w3.org/1999/xlink" xmlns:a="http://ns.adobe.com/AdobeSVGViewerExtensions/3.0/" version="1.1" x="0px" y="0px" viewBox="0 0 100 100" enable-background="new 0 0 100 100" xml:space="preserve"><g><path d="M91.668,43.332h-3.332V31.667c0-3.682-2.986-6.667-6.672-6.667H15c-1.842,0-3.332-1.492-3.332-3.333   c0-1.84,1.49-3.332,3.332-3.332h63.336c1.842,0,3.328-1.493,3.328-3.334s-1.486-3.333-3.328-3.333H15c-5.523,0-10,4.476-10,9.999   v56.667c0,5.523,4.477,9.998,10,9.998h66.664c3.686,0,6.672-2.984,6.672-6.666V70.002h3.332c1.84,0,3.332-1.494,3.332-3.336V46.667   C95,44.827,93.508,43.332,91.668,43.332z M80.004,63.596c-3.832,0-6.926-3.105-6.926-6.933c0-3.821,3.094-6.923,6.926-6.923   c3.822,0,6.922,3.102,6.922,6.923C86.926,60.49,83.826,63.596,80.004,63.596z"></path></g></svg>